# xmcd
#
# Track frame offsets:
#	150
#	16374
#	31952
#	46611
#	62755
#	80352
#	96700
#	106094
#	123348
#	140367
#	154599
#	165912
#	178896
#	189616
#	202906
#
# Disc length: 2895 seconds
#
# Revision: 1
# Processed by: cddbd v1.5.1PL0 Copyright (c) Steve Scherf et al.
# Submitted via: EasyCDDAExtractor 7.0.6.1
#
DISCID=bb0b4d0f
DTITLE=Alison Krauss and Union Station - Lonely Runs Both Ways
DYEAR=2004
DGENRE=Bluegrass
TTITLE0=A Living Prayer
TTITLE1=Borderline
TTITLE2=Crazy As Me
TTITLE3=Doesn't Have to Be This Way
TTITLE4=Goodbye Is All We Have
TTITLE5=Gravity
TTITLE6=I Don't Have to Live This Way
TTITLE7=If I Didn't Know Any Better
TTITLE8=Pastures of Plenty
TTITLE9=Poor Old Heart
TTITLE10=Rain Please Go Away
TTITLE11=Restless
TTITLE12=This Sad Song
TTITLE13=Unionhouse Branch
TTITLE14=Wouldn't Be So Bad
EXTD=
EXTT0=
EXTT1=
EXTT2=
EXTT3=
EXTT4=
EXTT5=
EXTT6=
EXTT7=
EXTT8=
EXTT9=
EXTT10=
EXTT11=
EXTT12=
EXTT13=
EXTT14=
PLAYORDER=
